<svg viewBox="0 0 1024 1024" version="1.1" xmlns="http://www.w3.org/2000/svg" width="200" height="200"><path d="M105.8 218.1l43.8-43.8L399.3 424l-65.7 65.7L105.8 262c-12.1-12.1-12.1-31.8 0-43.9z" p-id="8474"></path><path d="M227.32 96.88l21.92 21.92-87.61 87.61-21.92-21.92zM304.561 174.02l21.92 21.92-87.61 87.61-21.92-21.92zM379.718 249.279l21.92 21.92-87.61 87.61-21.92-21.92zM454.945 324.466l21.92 21.92-87.61 87.61-21.92-21.92z" p-id="8475"></path><path d="M537.4 693.5l65.7-65.7 247.6 247.6-43.8 43.8c-12.1 12.1-31.7 12.1-43.8 0L537.4 693.5z" p-id="8476"></path><path d="M680.627 550.171l21.92 21.92-87.61 87.61-21.92-21.92zM755.854 625.359l21.92 21.92-87.61 87.61-21.92-21.92zM831.152 700.617l21.92 21.92-87.61 87.61-21.92-21.92zM906.379 775.805l21.92 21.92-87.61 87.61-21.92-21.92z" p-id="8477"></path><path d="M630.5 217.8L214.3 634.1c-12.1 12.1-12.1 31.7 0 43.8l131.4 131.4c12.1 12.1 31.7 12.1 43.8 0l416.2-416.2c12.1-12.1 12.1-31.7 0-43.8L674.4 217.8c-12.1-12.1-31.8-12.1-43.9 0zM367.7 743.6L280 656l372.4-372.4 87.6 87.6-372.3 372.4zM740.1 108.3l-43.8 43.8c-12.1 12.1-12.1 31.7 0 43.8l131.4 131.4c12.1 12.1 31.7 12.1 43.8 0l43.8-43.8c12.1-12.1 12.1-31.7 0-43.8L783.9 108.3c-12.1-12.1-31.7-12.1-43.8 0z m98.6 186.2L729.1 185l43.8-43.8 109.5 109.5-43.7 43.8zM169.4 694.7L97.9 906.1c-4.1 12.1 7.5 23.7 19.6 19.6L329 854.3c10.9-3.7 14.1-17.5 6-25.6l-140-140c-8.1-8.2-22-4.9-25.6 6z m29.9 63.9l65.7 65.7L153.6 870l45.7-111.4z"></path></svg>