<svg viewBox="0 0 1024 1024" version="1.1" xmlns="http://www.w3.org/2000/svg" width="200" height="200"><path d="M435.2 793.6l156.8-150.4-25.6-25.6-195.2 185.6 28.8 25.6 195.2 6.4-169.6 163.2 25.6 25.6 208-198.4-25.6-28.8-198.4-3.2z m83.2-592c-147.2 0-268.8 121.6-268.8 268.8 0 73.6 28.8 140.8 80 192l41.6-41.6a205.44 205.44 0 0 1-60.8-147.2c0-115.2 92.8-208 208-208s208 92.8 208 208c0 57.6-22.4 108.8-60.8 147.2l41.6 41.6c48-48 80-115.2 80-192 0-147.2-121.6-268.8-268.8-268.8z m0-201.6C259.2 0 44.8 211.2 44.8 473.6c0 128 54.4 246.4 140.8 332.8l48-48c-73.6-73.6-118.4-176-118.4-284.8-3.2-224 179.2-406.4 403.2-406.4s406.4 182.4 406.4 406.4c0 112-44.8 214.4-118.4 284.8l48 48c86.4-86.4 137.6-204.8 137.6-332.8C992 211.2 777.6 0 518.4 0z m-67.2 470.4c0 38.4 28.8 67.2 67.2 67.2s67.2-28.8 67.2-67.2-28.8-67.2-67.2-67.2-67.2 28.8-67.2 67.2z"></path></svg>