<?xml version="1.0" standalone="no"?><!DOCTYPE svg PUBLIC "-//W3C//DTD SVG 1.1//EN" "http://www.w3.org/Graphics/SVG/1.1/DTD/svg11.dtd"><svg t="1623738005101" class="icon" viewBox="0 0 1024 1024" version="1.1" xmlns="http://www.w3.org/2000/svg" p-id="6291" xmlns:xlink="http://www.w3.org/1999/xlink" width="200" height="200"><defs><style type="text/css"></style></defs><path d="M832 896v64H192v-64h640zM512 64c176.736 0 320 143.264 320 320a316.8 316.8 0 0 1-41.632 156.896l-5.376 8.928 0.288 0.256a311.68 311.68 0 0 1-32.32 44l-9.28 10.08-9.6 9.6-7.808 7.392L512 832 290.88 614.72l-9.6-9.6a311.68 311.68 0 0 1-41.6-54.08A316.8 316.8 0 0 1 192 384c0-176.736 143.264-320 320-320zM333.216 200.256A256 256 0 0 0 318.56 551.2l5.92 6.56L512 745.28l44.8-45.12 143.04-142.72a256 256 0 0 0-366.656-357.184zM512 256a128 128 0 1 1 0 256 128 128 0 0 1 0-256z m0 64a64 64 0 1 0 0 128 64 64 0 0 0 0-128z" p-id="6292"></path></svg>