<svg viewBox="0 0 1024 1024" version="1.1" xmlns="http://www.w3.org/2000/svg" width="200" height="200"><path d="M341.314 60.187H205.768c-74.869 0-146.838 49.386-146.838 124.245v135.546c0 74.869 71.975 146.838 146.838 146.838h135.546c136.995 0 124.245-4.199 124.245-146.838V184.432c0-74.869-49.386-124.245-124.245-124.245m79.068 244.723c0 110.962 12.4 116.726-94.135 116.726H220.839c-58.238 0-116.726-58.494-116.726-116.726V199.482c0-58.218 58.494-94.117 116.726-94.117h105.408c58.238 0 94.135 35.898 94.135 94.135v105.408zM341.314 557.187H205.768c-74.869 0-146.838 49.398-146.838 124.245v135.546c0 74.845 71.975 146.838 146.838 146.838h135.546c74.869 0 124.245-71.994 124.245-146.838V681.432c0-131.325 7.095-124.245-124.245-124.245m79.068 244.72c0 58.218-35.898 116.726-94.135 116.726H220.839c-58.238 0-116.726-58.511-116.726-116.726V696.479c0-58.218 58.494-94.117 116.726-94.117h105.408c102.156 0 94.135-7.995 94.135 94.117v105.428zM838.308 60.187H702.762c-74.869 0-146.838 49.398-146.838 124.245v135.546c0 136.995 9.851 146.838 146.838 146.838h135.546c74.869 0 124.245-71.975 124.245-146.838V184.432c0-74.845-49.386-124.245-124.245-124.245m79.073 244.751c0 58.218-35.898 116.688-94.135 116.688H717.838c-106.558 0.005-116.726-10.121-116.726-116.688V199.51c0-58.218 58.494-94.164 116.726-94.164h105.408c58.238 0 94.135 35.94 94.135 94.164v105.428zM838.308 557.187H702.762c-136.995 0-146.838-12.72-146.838 124.245v135.546c0 74.845 71.975 146.838 146.838 146.838h135.546c74.869 0 124.245-71.994 124.245-146.838V681.432c0-74.845-49.386-124.245-124.245-124.245m79.073 244.72c0 58.218-35.898 116.726-94.135 116.726H717.838c-58.238 0-116.726-58.511-116.726-116.726V696.479c0-106.541 10.162-94.117 116.726-94.117h105.408c58.238 0 94.135 35.898 94.135 94.117v105.428z" fill=""></path></svg>